<svg width="146" height="32" viewBox="0 0 146 32" fill="none" xmlns="http://www.w3.org/2000/svg">
<g clip-path="url(#clip0_2_23)">
<path d="M78.5538 6.42676L77.794 12.1349C77.6263 13.3797 77.3799 14.4319 77.0615 15.2985C77.9617 14.3941 78.9509 13.6307 80.029 13.0083C81.1072 12.3859 82.1066 12.0764 83.0239 12.0764C84.1123 12.0764 84.9475 12.2793 85.5259 12.6851C86.108 13.0908 86.519 13.8439 86.765 14.9443C87.008 16.0446 86.97 17.5576 86.652 19.4798C86.447 21.0238 86.156 22.2823 85.7792 23.252C85.4027 24.2217 84.9167 24.9438 84.3177 25.4149C83.7187 25.886 83.1095 26.1955 82.49 26.3468C81.8705 26.4981 81.073 26.5738 80.1009 26.5738C77.8145 26.5738 75.5076 26.2333 73.1802 25.5559L75.8533 6.42676H78.5538ZM77.0068 17.4476L76.0792 24.2286C77.4278 24.2836 78.4306 24.3146 79.0878 24.3146C80.8676 24.3146 82.0416 24.0292 82.6029 23.4515C83.1643 22.8772 83.5955 21.488 83.8967 19.2838C84.1603 17.231 84.1876 15.9105 83.9823 15.326C83.7769 14.7414 83.243 14.4491 82.3804 14.4491C81.049 14.4525 79.2589 15.4498 77.0068 17.4476Z" fill="white"/>
<path d="M100.213 26.2057H98.074L98.187 23.6611C96.537 25.5833 94.569 26.5427 92.279 26.5427C90.609 26.5427 89.486 25.996 88.904 24.9025C88.322 23.809 88.22 21.8868 88.596 19.1393C88.801 17.6126 89.092 16.3643 89.469 15.3946C89.845 14.4249 90.342 13.7028 90.961 13.2317C91.581 12.7606 92.217 12.4443 92.875 12.2861C93.532 12.1279 94.374 12.0454 95.407 12.0454C97.639 12.0454 99.881 12.2896 102.13 12.7813L100.213 26.2057ZM98.159 21.2335L99.145 14.394C97.42 14.3562 96.455 14.339 96.249 14.339C95.274 14.339 94.535 14.3871 94.028 14.48C93.521 14.5728 93.076 14.8135 92.693 15.2021C92.31 15.5872 92.026 16.0824 91.848 16.6841C91.67 17.2859 91.495 18.1731 91.327 19.3388C91.064 21.3916 91.033 22.7121 91.228 23.2932C91.427 23.8778 91.964 24.1701 92.847 24.1701C93.71 24.1701 94.552 23.9294 95.38 23.4479C96.198 22.9734 97.129 22.2341 98.159 21.2335Z" fill="white"/>
<path d="M107.301 12.417L107.161 15.3846C109.636 13.1632 111.802 12.0491 113.657 12.0491C114.821 12.0491 115.701 12.3826 116.3 13.0532C116.899 13.7237 117.104 14.6796 116.919 15.921L115.458 26.206H112.757L114.078 16.5984C114.191 15.7319 114.157 15.1438 113.979 14.8309C113.801 14.5215 113.411 14.3633 112.812 14.3633C112.042 14.3633 111.241 14.6005 110.406 15.0682C109.571 15.5393 108.479 16.313 107.13 17.3858L105.922 26.2025H103.194L105.135 12.4136H107.301V12.417Z" fill="white"/>
<path d="M128.902 12.4169H131.688C130.901 14.8858 129.381 16.9284 127.133 18.548C127.413 18.9812 127.694 19.528 127.978 20.1882L130.651 26.2058H127.725L125.082 19.8478C124.237 20.3017 123.152 20.8278 121.82 21.4296L121.119 26.2058H118.418L121.174 6.42676H123.901L122.662 15.6939C122.495 16.8252 122.194 17.9531 121.762 19.0844C123.542 18.2351 125.086 17.2447 126.39 16.1031C127.687 14.9649 128.526 13.7373 128.902 12.4169Z" fill="white"/>
<path d="M77.5539 6.42676L76.794 12.1349C76.6263 13.3797 76.3799 14.4319 76.0616 15.2985C76.9617 14.3941 77.9509 13.6307 79.0291 13.0083C80.1072 12.3859 81.1066 12.0764 82.0239 12.0764C83.1124 12.0764 83.9475 12.2793 84.5259 12.6851C85.108 13.0908 85.519 13.8439 85.765 14.9443C86.008 16.0446 85.97 17.5576 85.652 19.4798C85.447 21.0238 85.156 22.2823 84.7792 23.252C84.4027 24.2217 83.9167 24.9438 83.3177 25.4149C82.7187 25.886 82.1095 26.1955 81.49 26.3468C80.8705 26.4981 80.073 26.5738 79.1009 26.5738C76.8145 26.5738 74.5076 26.2333 72.1802 25.5559L74.8533 6.42676H77.5539ZM76.0068 17.4476L75.0792 24.2286C76.4278 24.2836 77.4306 24.3146 78.0878 24.3146C79.8676 24.3146 81.0416 24.0292 81.6029 23.4515C82.1643 22.8772 82.5955 21.488 82.8967 19.2838C83.1603 17.231 83.1877 15.9105 82.9823 15.326C82.7769 14.7414 82.243 14.4491 81.3805 14.4491C80.049 14.4525 78.2589 15.4498 76.0068 17.4476Z" fill="white"/>
<path d="M99.213 26.2057H97.074L97.187 23.6611C95.537 25.5833 93.569 26.5427 91.279 26.5427C89.609 26.5427 88.486 25.996 87.904 24.9025C87.322 23.809 87.22 21.8868 87.596 19.1393C87.801 17.6126 88.092 16.3643 88.469 15.3946C88.845 14.4249 89.342 13.7028 89.961 13.2317C90.581 12.7606 91.217 12.4443 91.875 12.2861C92.532 12.1279 93.374 12.0454 94.407 12.0454C96.639 12.0454 98.881 12.2896 101.13 12.7813L99.213 26.2057ZM97.159 21.2335L98.145 14.394C96.42 14.3562 95.455 14.339 95.249 14.339C94.274 14.339 93.535 14.3871 93.028 14.48C92.521 14.5728 92.076 14.8135 91.693 15.2021C91.31 15.5872 91.026 16.0824 90.848 16.6841C90.67 17.2859 90.495 18.1731 90.327 19.3388C90.064 21.3916 90.033 22.7121 90.228 23.2932C90.427 23.8778 90.964 24.1701 91.847 24.1701C92.71 24.1701 93.552 23.9294 94.38 23.4479C95.198 22.9734 96.129 22.2341 97.159 21.2335Z" fill="white"/>
<path d="M106.301 12.417L106.161 15.3846C108.636 13.1632 110.802 12.0491 112.657 12.0491C113.821 12.0491 114.701 12.3826 115.3 13.0532C115.899 13.7237 116.104 14.6796 115.919 15.921L114.458 26.206H111.757L113.078 16.5984C113.191 15.7319 113.157 15.1438 112.979 14.8309C112.801 14.5215 112.411 14.3633 111.812 14.3633C111.042 14.3633 110.241 14.6005 109.406 15.0682C108.571 15.5393 107.479 16.313 106.13 17.3858L104.922 26.2025H102.194L104.135 12.4136H106.301V12.417Z" fill="white"/>
<path d="M127.902 12.4169H130.688C129.901 14.8858 128.381 16.9284 126.133 18.548C126.413 18.9812 126.694 19.528 126.978 20.1882L129.651 26.2058H126.725L124.082 19.8478C123.237 20.3017 122.152 20.8278 120.82 21.4296L120.119 26.2058H117.418L120.174 6.42676H122.902L121.662 15.6939C121.495 16.8252 121.194 17.9531 120.762 19.0844C122.542 18.2351 124.086 17.2447 125.39 16.1031C126.687 14.9649 127.526 13.7373 127.902 12.4169Z" fill="white"/>
<path d="M41.3771 18.7021L36.1446 18.6884L36.6679 15.7142L41.501 15.7279C42.2262 15.7279 42.8871 15.604 43.4838 15.3562C44.0896 15.0991 44.5899 14.7228 44.9847 14.2271C45.3794 13.7222 45.6272 13.0934 45.7282 12.3406C45.82 11.7072 45.7741 11.1427 45.5905 10.647C45.4161 10.1421 45.1132 9.74277 44.6817 9.44902C44.2595 9.14609 43.7179 8.98086 43.0569 8.95332L39.0775 8.93955L36.1171 26H32.4131L35.883 5.95156L43.1671 5.96533C44.4247 5.99287 45.5446 6.26367 46.5269 6.77773C47.5183 7.28262 48.2802 8.00322 48.8126 8.93955C49.345 9.8667 49.5562 10.9912 49.446 12.3131C49.3267 13.7635 48.8814 14.966 48.1104 15.9207C47.3393 16.8662 46.3616 17.5685 45.1774 18.0274C43.9933 18.4772 42.7265 18.7021 41.3771 18.7021ZM57.1156 4.85L53.4529 26H49.8866L53.5493 4.85H57.1156ZM66.0521 22.2822L67.9798 11.1014H71.5599L68.9712 26H65.6252L66.0521 22.2822ZM66.9471 19.3769L68.0486 19.3355C67.9385 20.226 67.7365 21.0935 67.4428 21.938C67.1582 22.7733 66.7635 23.5215 66.2586 24.1824C65.7629 24.8434 65.1433 25.3666 64.3997 25.7521C63.6562 26.1285 62.7795 26.3075 61.7697 26.2892C60.9527 26.2708 60.2643 26.1147 59.7043 25.821C59.1535 25.5181 58.7129 25.1096 58.3824 24.5955C58.0611 24.0814 57.8408 23.4939 57.7215 22.833C57.6113 22.1721 57.593 21.4698 57.6664 20.7263L59.2774 11.1014H62.8438L61.2189 20.7813C61.1822 21.1118 61.1776 21.4285 61.2052 21.7314C61.2419 22.0344 61.3199 22.3098 61.4393 22.5576C61.5586 22.7963 61.7376 22.9891 61.9763 23.1359C62.2149 23.2828 62.5271 23.3654 62.9126 23.3838C63.7479 23.4113 64.441 23.2461 64.9918 22.8881C65.5518 22.5301 65.9878 22.0436 66.2999 21.4285C66.612 20.8043 66.8277 20.1204 66.9471 19.3769Z" fill="white"/>
</g>
<path d="M6.50001 12.7H2.60001V21.8H6.50001V12.7Z" fill="white"/>
<path d="M14.95 12.7H11.05V21.8H14.95V12.7Z" fill="white"/>
<path d="M26 24.4H0V28.3H26V24.4Z" fill="white"/>
<path d="M23.4 12.7H19.5V21.8H23.4V12.7Z" fill="white"/>
<path d="M13 1L0 7.5V10.1H26V7.5L13 1Z" fill="white"/>
<defs>
<clipPath id="clip0_2_23">
<rect width="146" height="32" fill="white"/>
</clipPath>
</defs>
</svg>
